<?xml version="1.0" encoding="UTF-8" standalone="no"?>
<svg
   xmlns:dc="http://purl.org/dc/elements/1.1/"
   xmlns:cc="http://creativecommons.org/ns#"
   xmlns:rdf="http://www.w3.org/1999/02/22-rdf-syntax-ns#"
   xmlns:svg="http://www.w3.org/2000/svg"
   xmlns="http://www.w3.org/2000/svg"
   xmlns:sodipodi="http://sodipodi.sourceforge.net/DTD/sodipodi-0.dtd"
   xmlns:inkscape="http://www.inkscape.org/namespaces/inkscape"
   width="20"
   height="24"
   viewBox="0 0 20 24"
   version="1.1"
   id="svg4"
   sodipodi:docname="bulb.svg"
   inkscape:version="0.92.4 (5da689c313, 2019-01-14)">
  <metadata
     id="metadata10">
    <rdf:RDF>
      <cc:Work
         rdf:about="">
        <dc:format>image/svg+xml</dc:format>
        <dc:type
           rdf:resource="http://purl.org/dc/dcmitype/StillImage" />
        <dc:title></dc:title>
      </cc:Work>
    </rdf:RDF>
  </metadata>
  <defs
     id="defs8" />
  <sodipodi:namedview
     pagecolor="#ffffff"
     bordercolor="#666666"
     borderopacity="1"
     objecttolerance="10"
     gridtolerance="10"
     guidetolerance="10"
     inkscape:pageopacity="0"
     inkscape:pageshadow="2"
     inkscape:window-width="1920"
     inkscape:window-height="1000"
     id="namedview6"
     showgrid="false"
     fit-margin-top="0"
     fit-margin-left="0"
     fit-margin-right="0"
     fit-margin-bottom="0"
     inkscape:zoom="9.8333333"
     inkscape:cx="22.81356"
     inkscape:cy="15.559322"
     inkscape:window-x="0"
     inkscape:window-y="40"
     inkscape:window-maximized="1"
     inkscape:current-layer="svg4" />
  <path
     d="M 12,19 H 8 C 7.724,19 7.5,19.224 7.5,19.5 7.5,19.776 7.724,20 8,20 h 4 c 0.276,0 0.5,-0.224 0.5,-0.5 C 12.5,19.224 12.276,19 12,19 Z m 0,2 H 8 C 7.724,21 7.5,21.224 7.5,21.5 7.5,21.776 7.724,22 8,22 h 4 c 0.276,0 0.5,-0.224 0.5,-0.5 C 12.5,21.224 12.276,21 12,21 Z m 0.25,2 h -4.5 l 1.188,0.782 C 9.092,23.92 9.318,24 9.553,24 h 0.895 c 0.234,0 0.461,-0.08 0.615,-0.218 z M 16,9.201 C 16,12.77 12.786,15.184 12.786,18 h -1.989 c -0.003,-1.858 0.87,-3.389 1.721,-4.867 C 13.279,11.808 14,10.556 14,9.201 14,6.609 11.925,5.429 9.997,5.429 8.072,5.429 6,6.609 6,9.201 c 0,1.355 0.721,2.607 1.482,3.932 0.851,1.478 1.725,3.009 1.72,4.867 H 7.214 C 7.214,15.184 4,12.77 4,9.201 4,5.478 6.998,3.429 9.997,3.429 12.998,3.429 16,5.48 16,9.201 Z M 20,8.51 V 9.882 H 17.462 C 17.482,9.659 17.5,9.434 17.5,9.201 17.5,8.964 17.483,8.737 17.465,8.511 H 20 Z M 9.352,1.957 V 0 h 1.371 V 1.964 C 10.481,1.942 10.239,1.929 9.997,1.929 c -0.215,0 -0.43,0.01 -0.645,0.028 z M 5.609,3.251 4.569,1.311 5.777,0.663 6.814,2.596 C 6.396,2.777 5.992,2.997 5.609,3.251 Z M 16.195,4.986 18.137,3.592 18.936,4.707 16.882,6.18 C 16.691,5.75 16.459,5.353 16.195,4.986 Z M 13.185,2.597 14.223,0.663 15.431,1.311 14.39,3.252 C 14.008,2.998 13.604,2.779 13.185,2.597 Z M 3.117,6.18 1.063,4.708 1.862,3.593 3.804,4.986 C 3.54,5.352 3.309,5.749 3.117,6.18 Z m 13.707,6.223 2.354,0.954 -0.514,1.271 -2.425,-0.982 c 0.21,-0.397 0.408,-0.812 0.585,-1.243 z M 3.716,13.558 1.36,14.618 0.798,13.367 3.138,12.315 c 0.173,0.433 0.371,0.845 0.578,1.243 z M 2.538,9.882 H 0 V 8.51 H 2.535 C 2.517,8.736 2.5,8.964 2.5,9.201 c 0,0.233 0.018,0.458 0.038,0.681 z"
     id="path2"
     style="fill:#000000"
     inkscape:connector-curvature="0" />
</svg>
