<?xml version="1.0" encoding="UTF-8" standalone="no"?>
<svg
   xmlns:dc="http://purl.org/dc/elements/1.1/"
   xmlns:cc="http://creativecommons.org/ns#"
   xmlns:rdf="http://www.w3.org/1999/02/22-rdf-syntax-ns#"
   xmlns:svg="http://www.w3.org/2000/svg"
   xmlns="http://www.w3.org/2000/svg"
   xmlns:sodipodi="http://sodipodi.sourceforge.net/DTD/sodipodi-0.dtd"
   xmlns:inkscape="http://www.inkscape.org/namespaces/inkscape"
   width="24"
   height="24"
   version="1.1"
   id="svg4"
   sodipodi:docname="iconmonstr-gear-12.svg"
   style="clip-rule:evenodd;fill-rule:evenodd"
   inkscape:version="0.92.4 (5da689c313, 2019-01-14)">
  <metadata
     id="metadata10">
    <rdf:RDF>
      <cc:Work
         rdf:about="">
        <dc:format>image/svg+xml</dc:format>
        <dc:type
           rdf:resource="http://purl.org/dc/dcmitype/StillImage" />
        <dc:title></dc:title>
      </cc:Work>
    </rdf:RDF>
  </metadata>
  <defs
     id="defs8" />
  <sodipodi:namedview
     pagecolor="#ffffff"
     bordercolor="#666666"
     borderopacity="1"
     objecttolerance="10"
     gridtolerance="10"
     guidetolerance="10"
     inkscape:pageopacity="0"
     inkscape:pageshadow="2"
     inkscape:window-width="1920"
     inkscape:window-height="1000"
     id="namedview6"
     showgrid="false"
     fit-margin-top="0"
     fit-margin-left="0"
     fit-margin-right="0"
     fit-margin-bottom="0"
     inkscape:zoom="9.8333333"
     inkscape:cx="35.898305"
     inkscape:cy="19.322034"
     inkscape:window-x="0"
     inkscape:window-y="40"
     inkscape:window-maximized="1"
     inkscape:current-layer="svg4" />
  <path
     d="M 2.458,9.0120001 C 2.161,9.9590001 2,10.967 2,12.012 c 0,5.52 4.481,10 10,10 5.52,0 10,-4.48 10,-10 0,-5.5189999 -4.48,-10 -10,-10 -2.121,0 -4.083,0.6680001 -5.703,1.7960001 L 8,6.0120001 H 1.42 L 3.355,0 5.073,2.223 C 7.031,0.834 9.419,0.012 12,0.012 c 6.623,0 12,5.3770001 12,12 C 24,18.635 18.623,24 12,24 5.377,24 0,18.635 0,12.012 0,10.976 0.132,9.9710001 0.379,9.0120001 Z m 10.35,-3.012 c 0.292,0.821 0.375,1.346 1.01,1.609 0.637,0.264 1.073,-0.052 1.854,-0.423 l 1.142,1.142 c -0.373,0.787 -0.687,1.218 -0.423,1.8539999 0.262,0.634 0.784,0.716 1.609,1.009 v 1.617 c -0.816,0.29 -1.347,0.375 -1.61,1.01 -0.264,0.636 0.052,1.071 0.424,1.853 l -1.142,1.142 c -0.79,-0.375 -1.219,-0.687 -1.85,-0.424 -0.639,0.265 -0.723,0.793 -1.014,1.611 H 11.192 C 10.9,17.179 10.817,16.653 10.182,16.39 9.545,16.126 9.11,16.442 8.328,16.813 L 7.186,15.671 C 7.552,14.9 7.875,14.459 7.609,13.817 7.346,13.182 6.816,13.098 6,12.808 V 11.191 C 6.817,10.901 7.346,10.818 7.609,10.182 7.873,9.5450001 7.558,9.1120001 7.186,8.3280001 l 1.142,-1.142 c 0.788,0.374 1.218,0.687 1.854,0.423 0.635,-0.263 0.719,-0.792 1.01,-1.609 z M 12,14 c -1.105,0 -2,-0.896 -2,-2 0,-1.105 0.895,-2.0009999 2,-2.0009999 1.104,0 2,0.8959999 2,2.0009999 0,1.104 -0.896,2 -2,2 z"
     id="path2"
     inkscape:connector-curvature="0"
     style="fill:#ffffff" />
</svg>
